<svg xmlns="http://www.w3.org/2000/svg" xmlns:svgjs="http://svgjs.com/svgjs" xmlns:xlink="http://www.w3.org/1999/xlink" width="288" height="288"><svg xmlns="http://www.w3.org/2000/svg" width="288" height="288" viewBox="0 0 1500 1500"><defs><clipPath id="a"><rect width="1500" height="1500" class="color000 svgShape"/></clipPath></defs><g class="color000 svgShape" clip-path="url(#a)"><rect width="1500" height="1500" fill="#f0f7f9" class="colorfff svgShape"/><g class="color000 svgShape" data-name="undraw_learning_re_32qv"><g class="color000 svgShape" data-name="undraw_learning_re_32qv"><rect width="1500" height="1500" fill="#f0f7f9" class="colorfff svgShape" data-name="Rectangle 2205" opacity="0"/><path fill="#bcbcbc" d="M519.464,815.469V426.645a37.179,37.179,0,0,1,37.144-37.129H1327.86A37.176,37.176,0,0,1,1365,426.645V815.469a37.177,37.177,0,0,1-37.14,37.131H556.608a37.18,37.18,0,0,1-37.144-37.131ZM1361.23,426.645a33.367,33.367,0,0,0-33.37-33.364H556.608a33.372,33.372,0,0,0-33.378,33.365V815.469a33.372,33.372,0,0,0,33.378,33.366H1081.2c154.66,0,280.03-125.329,280.03-279.93V426.645Z" class="colore6e6e6 svgShape" data-name="Path 16350"/><path fill="#f0f7f9" d="M791.177,460.242H358.93a23.257,23.257,0,0,0-23.239,23.23V642.2a23.257,23.257,0,0,0,23.239,23.23H791.177a23.257,23.257,0,0,0,23.239-23.23V483.472a23.257,23.257,0,0,0-23.239-23.23Z" class="colorfff svgShape" data-name="Path 16351"/><path fill="#37505c" d="M791.177,460.242H358.93a23.257,23.257,0,0,0-23.239,23.23V642.2a23.257,23.257,0,0,0,23.239,23.23H791.177a23.257,23.257,0,0,0,23.239-23.23V483.472a23.257,23.257,0,0,0-23.239-23.23ZM811.972,642.2a20.806,20.806,0,0,1-20.795,20.787H358.93A20.806,20.806,0,0,1,338.135,642.2V483.472a20.806,20.806,0,0,1,20.795-20.787H791.177a20.806,20.806,0,0,1,20.795,20.787V642.2Z" class="color3f3d56 svgShape" data-name="Path 16352"/><path fill="#f4e04d" d="M379.168,532.582H763.332a6.589,6.589,0,1,1,0,13.177H379.168a6.589,6.589,0,1,1,0-13.177Z" class="colorffc932 svgShape" data-name="Path 16353"/><path fill="#f4e04d" d="M379.168,575.879H518.522a6.589,6.589,0,1,1,0,13.177H379.168a6.589,6.589,0,1,1,0-13.177Z" class="colorffc932 svgShape" data-name="Path 16354"/><path fill="#bcbcbc" d="M1218.02,512.454H954.383a7.529,7.529,0,1,1,0-15.059H1218.02a7.53,7.53,0,1,1,0,15.059Z" class="colore6e6e6 svgShape" data-name="Path 16355"/><path fill="#bcbcbc" d="M1268,675.754H900.637v-1.883c120.963,18.544,243.543,17.018,367.363,0Z" class="colore6e6e6 svgShape" data-name="Path 16356"/><path fill="#bcbcbc" d="M1218.02,608.458H954.383a7.53,7.53,0,1,1,0-15.06H1218.02a7.53,7.53,0,1,1,0,15.06Z" class="colore6e6e6 svgShape" data-name="Path 16357"/><path fill="#bcbcbc" d="M1269.89,700.225H902.52v1.882h367.37Z" class="colore6e6e6 svgShape" data-name="Path 16358"/><path fill="#bcbcbc" d="M1218.02,558.937H954.383a7.53,7.53,0,1,1,0-15.06H1218.02a7.53,7.53,0,1,1,0,15.06Z" class="colore6e6e6 svgShape" data-name="Path 16359"/><path fill="#bcbcbc" d="M1269.89,726.579c-126.81-8.622-249.96-9.995-367.37,0V724.7h367.37Z" class="colore6e6e6 svgShape" data-name="Path 16360"/><path fill="#37505c" d="M762.889,695.946l-15.5-7.339c6.356,8.868,11.834,22.718,14.766,33.738,4.965-10.265,12.969-22.826,20.892-30.33l-16.38,4.213c10.093-49.448,48.056-84.947,91.529-84.947v-3.765C812.789,607.516,773.194,644.5,762.889,695.946Z" class="color3f3d56 svgShape" data-name="Path 16361"/><path fill="#f4e04d" d="M834.221,771.29H736.3a7.53,7.53,0,1,1,0-15.06h97.924a7.53,7.53,0,1,1,0,15.06Z" class="colorffc932 svgShape" data-name="Path 16362"/><path fill="#f4e04d" d="M583.491,607.881a26.354,26.354,0,1,0-26.364-26.355A26.36,26.36,0,0,0,583.491,607.881Z" class="colorffc932 svgShape" data-name="Path 16363"/><path fill="#f0f7f9" d="M597.2,566.094a2.853,2.853,0,0,0-3.865,1.013l-9.4,18.617a40.846,40.846,0,0,0-9.513-10.312c-1.209-.933-3.165-.184-3.865,1.013a2.9,2.9,0,0,0,1.013,3.863,34,34,0,0,1,10.02,12.931c.863,1.905,3.977,1.784,4.878,0l11.746-23.261a2.892,2.892,0,0,0-1.013-3.864Z" class="colorfff svgShape" data-name="Path 16364"/><path fill="#f4e04d" d="M899.861,530.7A26.354,26.354,0,1,0,873.5,504.347,26.359,26.359,0,0,0,899.861,530.7Z" class="colorffc932 svgShape" data-name="Path 16365"/><path fill="#f0f7f9" d="M913.574,488.914a2.854,2.854,0,0,0-3.865,1.013l-9.4,18.618a40.831,40.831,0,0,0-9.513-10.313c-1.209-.933-3.165-.184-3.865,1.013a2.9,2.9,0,0,0,1.013,3.864,34,34,0,0,1,10.02,12.93c.863,1.9,3.977,1.785,4.878,0q5.872-11.631,11.746-23.261a2.892,2.892,0,0,0-1.013-3.864Z" class="colorfff svgShape" data-name="Path 16366"/><path fill="#f4e04d" d="M1278.37,574a26.354,26.354,0,1,0-26.36-26.354A26.358,26.358,0,0,0,1278.37,574Z" class="colorffc932 svgShape" data-name="Path 16367"/><path fill="#f0f7f9" d="M1292.09,532.209a2.86,2.86,0,0,0-3.87,1.013q-4.7,9.309-9.4,18.617a40.887,40.887,0,0,0-9.51-10.312c-1.21-.933-3.17-.184-3.87,1.013a2.9,2.9,0,0,0,1.02,3.863,34.032,34.032,0,0,1,10.02,12.931c.86,1.905,3.97,1.785,4.88,0q5.865-11.631,11.74-23.261a2.891,2.891,0,0,0-1.01-3.864Z" class="colorfff svgShape" data-name="Path 16368"/><path fill="#bcbcbc" d="M687.471,712.509h-63.5a7.157,7.157,0,0,1-7.15-7.148c-8.4-24.531-8.23-48.569,0-72.141a7.158,7.158,0,0,1,7.15-7.148h63.5a7.157,7.157,0,0,1,7.15,7.148v72.141a7.156,7.156,0,0,1-7.15,7.148Z" class="colore6e6e6 svgShape" data-name="Path 16369"/><path fill="#f0f7f9" d="M637.574,628.2a18.622,18.622,0,0,0-18.626,18.619v57.01a6.55,6.55,0,0,0,6.551,6.549h35.117a31.869,31.869,0,0,0,31.875-31.863V634.75a6.55,6.55,0,0,0-6.551-6.549Z" class="colorfff svgShape" data-name="Path 16370"/><path fill="#bcbcbc" d="M670.509,649.167H640.778a1.359,1.359,0,1,1,0-2.718h29.731a1.359,1.359,0,0,1,0,2.718Z" class="colore6e6e6 svgShape" data-name="Path 16371"/><path fill="#bcbcbc" d="M670.509,678.143H640.778a1.358,1.358,0,1,1,0-2.717h29.731a1.358,1.358,0,1,1,0,2.717Z" class="colore6e6e6 svgShape" data-name="Path 16372"/><path fill="#bcbcbc" d="M686.463,663.665H624.824a1.359,1.359,0,1,1,0-2.718h61.639a1.359,1.359,0,1,1,0,2.718Z" class="colore6e6e6 svgShape" data-name="Path 16373"/><path fill="#bcbcbc" d="M687.19,689.925H661.47a1.359,1.359,0,1,1,0-2.718h25.72a1.359,1.359,0,0,1,0,2.718Z" class="colore6e6e6 svgShape" data-name="Path 16374"/><path fill="#234951" d="M249.962,515.14c1.673-7.711,2.164-2.03,5.8-9.025-2.5,9.039,2.111,6.079,8.232,13.166,43.017,6.743,45.727-7.985,61.647-7.534h.082c3.5-.057,5.3-4.25,3.19-7.044-5.214-6.9-10.962-17.547-5.522-24.25,9.637-11.874,1.144-36.225-3.01-30.96,0-20.307-25.016-33.623-34.72-30.324-17.931,6.1-34.536,14.319-36.547,32.717-.314,2.872-.72,5.728-1.237,8.572-1.048,5.774-5.366,7.307-3.88,12.978l4.647,4.726a41.779,41.779,0,0,1-1.5,25.126c-1.651,4.46-1.88,8.284,2.811,11.852Z" class="color2f2e41 svgShape" data-name="Path 16375"/><path fill="#7a3b69" d="M294.747,487.892a26.954,26.954,0,1,0-26.965-26.954A26.959,26.959,0,0,0,294.747,487.892Z" class="colora0616a svgShape" data-name="Path 16376"/><path fill="#7a3b69" d="M252.743,1075.41l13.886.33,7.741-62.36-20.493-.49Z" class="colora0616a svgShape" data-name="Path 16377"/><path fill="#234951" d="M300.384,1104.37a4.005,4.005,0,0,1-3.718,4.24H269.1a24.877,24.877,0,0,0-13.771-15.58l-.763,15.58H240.35l1.723-25.06s-3.8-13.41,4.1-20.27,1.5-5.9,1.5-5.9l3.107-15.51,21.486,2.52.158,24.36,10.427,24.17,15.294,7.55a4.308,4.308,0,0,1,2.242,3.9Z" class="color2f2e41 svgShape" data-name="Path 16378"/><path fill="#7a3b69" d="M268.015,1018.83l11.029,8.44,42.995-45.844-16.276-12.455Z" class="colora0616a svgShape" data-name="Path 16379"/><path fill="#234951" d="M289.457,1070.28a4,4,0,0,1-5.507,1.24l-22.276-16.22a24.885,24.885,0,0,0-1.945-20.71l-9.8,12.15-11.492-8.37,16.161-19.24s4.827-13.08,15.249-13.97,4.69-3.89,4.69-3.89l11.652-10.708,15.876,14.688-14.22,19.78-5.815,25.67,7.911,15.11a4.3,4.3,0,0,1-.483,4.47Z" class="color2f2e41 svgShape" data-name="Path 16380"/><path fill="#234951" d="M228.28,756.543c.837,3.432-.705,19.4.157,24.9,2.193,13.971,22.224,90.144,18.769,111.859-12.661,79.564,4.85,130.6,4.85,130.6H280.3l15.065-240.95,14.7,19.375,28.77,85.9L287.948,979.7l26.574,21.935,79.345-126.1L337.485,664.571l-3.406-12.737-76.18-2.125,4.239,6.349-9.643,9.524a.4.4,0,0,1-.064.077c-1.485,2.073-34.5,48.5-24.151,90.884Z" class="color2f2e41 svgShape" data-name="Path 16381"/><path fill="#7a3b69" d="M252.431,665.659c8.823,3.149,68.445-.1,85.054-1.088l-3.406-12.737-76.18-2.125,4.239,6.349-9.643,9.524a.4.4,0,0,1-.064.077Z" class="colora0616a svgShape" data-name="Path 16382"/><path fill="#f4e04d" d="M351.035,563.655l-2.744,14.555-.665,3.491-14.6,29.945,1.918,43.9c1.228,5.138-50.594-6.522-77.515,5.523L236.478,560.885l21.248-46.175,16.63-9.235,2.771-11.082h35.227c1.876,8.782-.158,13.11-3.8,15.6l8.824,23.525,33.661,30.137Z" class="colorffc932 svgShape" data-name="Path 16383"/><path fill="#7a3b69" d="M378.588,477.808a21.692,21.692,0,0,1-3.416,9.659l-1.885,36.168-17.19-1.4L359.86,485.7a21.68,21.68,0,0,1-1.122-10.184c1-8.61,6.248-15.076,11.729-14.443s9.117,8.128,8.121,16.738Z" class="colora0616a svgShape" data-name="Path 16384"/><path fill="#f4e04d" d="M310.074,515.818l2.242,5.471s-32.767-3.281-32.067,13.821c.6,14.591,62.274,72.421,65.222,73.771h0a14.578,14.578,0,0,0,20.452-10.85c13.888-35.818,16.766-68.11,10.421-97.449H357.512l-6.132,23.145-.345,17.6-9.93,21.175L308.55,521.289l1.524-5.471Z" class="colorffc932 svgShape" data-name="Path 16385"/><path fill="#7a3b69" d="M200.9,716.851a22.18,22.18,0,0,0,.967-10.436l13.754-34.4-16.568-6.063L186.887,701.5a22.2,22.2,0,0,0-5.407,8.979c-2.766,8.425-.66,16.681,4.7,18.441s11.953-3.644,14.719-12.069Z" class="colora0616a svgShape" data-name="Path 16386"/><path fill="#f4e04d" d="M280.238,515.834s-20.343-7.71-31.892,1.712c-4.762,3.885-25.825,30.66-29.069,66.706-.255,2.825-2.18,5.256-3.264,7.9-6.689,16.294-18.205,23.8-23.1,37.735-1.914,5.446,1.6,19.531.387,24.229-6.331,24.6-4.047,38.629-4.047,38.629l17.1,5.689,9.274-6.552,15.232-55.6,49.383-120.443Z" class="colorffc932 svgShape" data-name="Path 16387"/><path fill="#bcbcbc" d="M433.245,473.437h-63.5a7.158,7.158,0,0,1-7.15-7.148c-8.4-24.531-8.23-48.569,0-72.141a7.157,7.157,0,0,1,7.15-7.148h63.5a7.156,7.156,0,0,1,7.15,7.148v72.141a7.157,7.157,0,0,1-7.15,7.148Z" class="colore6e6e6 svgShape" data-name="Path 16388"/><path fill="#f0f7f9" d="M383.348,389.129a18.622,18.622,0,0,0-18.625,18.619v57.01a6.55,6.55,0,0,0,6.551,6.548h35.117a31.868,31.868,0,0,0,31.874-31.862V395.677a6.55,6.55,0,0,0-6.551-6.548Z" class="colorfff svgShape" data-name="Path 16389"/><path fill="#bcbcbc" d="M416.283,410.1H386.552a1.359,1.359,0,1,1,0-2.718h29.731a1.359,1.359,0,1,1,0,2.718Z" class="colore6e6e6 svgShape" data-name="Path 16390"/><path fill="#bcbcbc" d="M416.283,439.071H386.552a1.359,1.359,0,1,1,0-2.717h29.731a1.359,1.359,0,1,1,0,2.717Z" class="colore6e6e6 svgShape" data-name="Path 16391"/><path fill="#bcbcbc" d="M432.237,424.593H370.6a1.359,1.359,0,1,1,0-2.718h61.639a1.359,1.359,0,1,1,0,2.718Z" class="colore6e6e6 svgShape" data-name="Path 16392"/><path fill="#bcbcbc" d="M432.964,450.852h-25.72a1.358,1.358,0,1,1,0-2.717h25.72a1.358,1.358,0,1,1,0,2.717Z" class="colore6e6e6 svgShape" data-name="Path 16393"/><path fill="#90c4cf" d="M451.525,1077.56a4.269,4.269,0,0,0,3.1-7.4l-.292-1.17c.038-.09.077-.18.116-.28a11.48,11.48,0,0,1,21.169.08c3.462,8.34,7.871,16.69,8.956,25.5a33.885,33.885,0,0,1-.6,11.67,135.968,135.968,0,0,0,12.382-56.51,131.365,131.365,0,0,0-.815-14.65q-.675-5.985-1.873-11.88a137.6,137.6,0,0,0-27.306-58.335,36.635,36.635,0,0,1-15.24-15.806,27.893,27.893,0,0,1-2.542-7.635c.741.1,2.8-11.2,2.238-11.892,1.034-1.568,2.884-2.348,4.013-3.878,5.617-7.612,13.354-6.283,17.394,4.061,8.629,4.353,8.712,11.573,3.417,18.517-3.368,4.418-3.831,10.4-6.787,15.125.305.39.621.766.925,1.156a138.471,138.471,0,0,1,14.464,22.906,57.571,57.571,0,0,1,3.44-26.749c3.292-7.938,9.463-14.625,14.9-21.488,6.527-8.244,19.912-4.646,21.062,5.8.011.1.022.2.032.3q-1.211.683-2.37,1.449A5.794,5.794,0,0,0,523.642,957l.118.018a57.614,57.614,0,0,1-1.52,8.621c6.971,26.949-8.079,36.767-29.568,37.207-.475.24-.937.48-1.411.72a137.547,137.547,0,0,1,5.206,18.78,139.165,139.165,0,0,1,2.408,17.03,134.113,134.113,0,0,1-.1,21.66l.037-.26a35.45,35.45,0,0,1,12.1-20.46c9.314-7.65,22.472-10.46,32.519-16.61,4.837-2.96,11.034.86,10.19,6.47l-.041.27a39.359,39.359,0,0,0-4.366,2.1c-.807.46-1.6.94-2.371,1.45a5.8,5.8,0,0,0,2.338,10.55l.118.01a2.074,2.074,0,0,0,.243.04,57.634,57.634,0,0,1-10.618,16.62c-4.359,23.53-23.08,25.76-43.106,18.91h-.012a141.448,141.448,0,0,1-9.5,27.72H452.376c-.122-.38-.232-.77-.341-1.14a38.875,38.875,0,0,0,9.39-.56c-2.518-3.09-5.036-6.2-7.553-9.29a2.133,2.133,0,0,1-.159-.18c-1.277-1.58-2.566-3.15-3.843-4.73v-.01a56.463,56.463,0,0,1,1.655-14.38Z" class="colorf2f2f2 svgShape" data-name="Path 16394"/><path fill="#4793a3" d="M136,1110.76a2.235,2.235,0,0,0,2.241,2.24H549.315a2.24,2.24,0,1,0,0-4.48H138.241A2.235,2.235,0,0,0,136,1110.76Z" class="colorccc svgShape" data-name="Path 16395"/><path fill="#234951" d="M302.056,429.047h-5.49c-16.059.018-43.509,22.725-32.887,38.652-9.07,24.184-9.4,36.767-5.551,43.352a7.372,7.372,0,0,0,7.034,3.332,10.857,10.857,0,0,1,1.128-.021c2.715.089,6.356,12.845,8.883,13.826l6.707-2.038,11-10.989L287.3,498.4l-10.8-8.448,1.472-19.566c-7.23-16.611.636-17.424,5.062-22.782l.448,17.19,6.34-6.116c5.164.134,11.2,2.372,15.21-2.283,7.287-8.522,14.842,1.767,23.449,3.847l2.67-2.113a40.778,40.778,0,0,0-1.995-13.564c-.648-1.95-2.3-3.558-2.374-5.5-.261-7.276-14.018-14.334-24.723-10.02Z" class="color2f2e41 svgShape" data-name="Path 16396"/></g><rect width="361" height="205" fill="#90c4cf" class="colorf2f2f2 svgShape" data-name="Rectangle 2241" transform="translate(819 184)"/><rect width="142" height="70" fill="#f0f7f9" class="colorfff svgShape" data-name="Rectangle 2242" transform="translate(848 217)"/><rect width="142" height="70" fill="#f0f7f9" class="colorfff svgShape" data-name="Rectangle 2245" transform="translate(848 304)"/><rect width="142" height="70" fill="#f0f7f9" class="colorfff svgShape" data-name="Rectangle 2243" transform="translate(1003 217)"/><rect width="142" height="70" fill="#f0f7f9" class="colorfff svgShape" data-name="Rectangle 2244" transform="translate(1003 304)"/></g></g></svg></svg>